<?xml version="1.0" standalone="no"?>
<!DOCTYPE svg PUBLIC "-//W3C//DTD SVG 20010904//EN"
 "http://www.w3.org/TR/2001/REC-SVG-20010904/DTD/svg10.dtd">
<svg version="1.0" xmlns="http://www.w3.org/2000/svg"
 width="183.000000pt" height="144.000000pt" viewBox="0 0 183.000000 144.000000"
 preserveAspectRatio="xMidYMid meet">
<metadata>
Created by potrace 1.15, written by Peter Selinger 2001-2017
</metadata>
<g transform="translate(0.000000,144.000000) scale(0.100000,-0.100000)"
fill="#000000" stroke="none">
<path d="M10 1130 c0 -5 11 -10 24 -10 13 0 34 -9 47 -19 24 -19 24 -22 30
-263 3 -133 9 -252 14 -263 20 -48 52 -79 104 -104 47 -22 70 -26 146 -26 79
0 97 4 148 28 44 22 63 39 85 75 27 47 27 48 33 282 3 129 9 243 13 253 18 39
59 42 99 9 15 -13 17 -34 17 -159 0 -150 -7 -183 -40 -183 -11 0 -20 -4 -20
-10 0 -6 32 -10 75 -10 43 0 75 4 75 10 0 6 -11 10 -25 10 -33 0 -36 18 -33
163 l3 118 128 -156 c70 -85 132 -155 136 -155 5 0 9 84 10 187 2 185 7 213
37 213 8 0 14 5 14 10 0 6 -30 10 -70 10 -70 0 -93 -12 -45 -24 l25 -6 0 -126
c0 -100 -3 -124 -12 -116 -7 6 -60 69 -118 141 l-105 130 -157 1 c-99 0 -158
-4 -158 -10 0 -5 9 -10 20 -10 32 0 68 -21 74 -44 10 -38 6 -410 -5 -451 -30
-112 -190 -170 -295 -106 -61 37 -69 70 -72 323 l-4 227 26 26 c14 14 37 25
51 25 14 0 25 5 25 10 0 6 -57 10 -150 10 -93 0 -150 -4 -150 -10z"/>
<path d="M770 352 c0 -13 -8 -18 -27 -17 -37 0 -59 -39 -44 -77 9 -25 16 -28
56 -28 28 0 45 4 45 12 0 9 3 9 12 0 7 -7 31 -12 54 -12 l42 0 -5 43 c-7 62
-10 67 -37 67 -35 0 -56 -10 -56 -26 0 -17 5 -17 30 -2 15 10 22 10 32 0 9 -9
6 -12 -14 -12 -15 0 -34 -7 -42 -16 -15 -14 -16 -11 -16 35 0 39 -4 51 -15 51
-8 0 -15 -8 -15 -18z"/>
<path d="M290 333 c0 -25 36 -103 47 -103 8 0 19 14 25 31 l11 31 13 -31 c11
-26 18 -31 47 -31 18 0 38 5 45 12 9 9 12 9 12 0 0 -7 7 -12 15 -12 11 0 15
11 15 39 0 25 5 41 15 45 25 9 17 23 -15 23 -19 0 -30 -5 -30 -14 0 -12 -3
-11 -16 1 -20 21 -53 20 -76 -1 -18 -16 -18 -16 -12 0 4 10 1 17 -6 17 -6 0
-17 -13 -23 -30 -6 -16 -14 -30 -18 -30 -4 0 -12 14 -18 30 -9 27 -31 42 -31
23z"/>
</g>
</svg>
